<?xml version="1.0" encoding="utf-8" standalone="no"?>
<!DOCTYPE svg PUBLIC "-//W3C//DTD SVG 1.1//EN"
  "http://www.w3.org/Graphics/SVG/1.1/DTD/svg11.dtd">
<svg xmlns:xlink="http://www.w3.org/1999/xlink" width="720pt" height="288pt" viewBox="0 0 720 288" xmlns="http://www.w3.org/2000/svg" version="1.1">
 <metadata>
  <rdf:RDF xmlns:dc="http://purl.org/dc/elements/1.1/" xmlns:cc="http://creativecommons.org/ns#" xmlns:rdf="http://www.w3.org/1999/02/22-rdf-syntax-ns#">
   <cc:Work>
    <dc:type rdf:resource="http://purl.org/dc/dcmitype/StillImage"/>
    <dc:date>2024-05-18T14:27:34.555715</dc:date>
    <dc:format>image/svg+xml</dc:format>
    <dc:creator>
     <cc:Agent>
      <dc:title>Matplotlib v3.7.3, https://matplotlib.org/</dc:title>
     </cc:Agent>
    </dc:creator>
   </cc:Work>
  </rdf:RDF>
 </metadata>
 <defs>
  <style type="text/css">*{stroke-linejoin: round; stroke-linecap: butt}</style>
 </defs>
 <g id="figure_1">
  <g id="patch_1">
   <path d="M 0 288 
L 720 288 
L 720 0 
L 0 0 
z
" style="fill: #ffffff"/>
  </g>
  <g id="axes_1">
   <g id="patch_2">
    <path d="M 247.57 220.067536 
L 709.2 220.067536 
L 709.2 10.8 
L 247.57 10.8 
z
" style="fill: #ffffff"/>
   </g>
   <g id="patch_3">
    <path d="M 247.57 20.312161 
L 287.856435 20.312161 
L 287.856435 33.210006 
L 247.57 33.210006 
z
" clip-path="url(#p7edf0c950d)" style="opacity: 0.4"/>
   </g>
   <g id="patch_4">
    <path d="M 247.57 36.434467 
L 327.704974 36.434467 
L 327.704974 49.332312 
L 247.57 49.332312 
z
" clip-path="url(#p7edf0c950d)" style="opacity: 0.4"/>
   </g>
   <g id="patch_5">
    <path d="M 287.856435 52.556773 
L 367.553514 52.556773 
L 367.553514 65.454618 
L 287.856435 65.454618 
z
" clip-path="url(#p7edf0c950d)" style="opacity: 0.4"/>
   </g>
   <g id="patch_6">
    <path d="M 287.856435 68.67908 
L 301.431212 68.67908 
L 301.431212 81.576925 
L 287.856435 81.576925 
z
" clip-path="url(#p7edf0c950d)" style="opacity: 0.4"/>
   </g>
   <g id="patch_7">
    <path d="M 327.704974 84.801386 
L 354.416633 84.801386 
L 354.416633 97.699231 
L 327.704974 97.699231 
z
" clip-path="url(#p7edf0c950d)" style="opacity: 0.4"/>
   </g>
   <g id="patch_8">
    <path d="M 314.130197 100.923692 
L 345.220816 100.923692 
L 345.220816 113.821538 
L 314.130197 113.821538 
z
" clip-path="url(#p7edf0c950d)" style="opacity: 0.4"/>
   </g>
   <g id="patch_9">
    <path d="M 354.416633 117.045999 
L 487.537027 117.045999 
L 487.537027 129.943844 
L 354.416633 129.943844 
z
" clip-path="url(#p7edf0c950d)" style="opacity: 0.4"/>
   </g>
   <g id="patch_10">
    <path d="M 394.703068 133.168305 
L 448.126384 133.168305 
L 448.126384 146.06615 
L 394.703068 146.06615 
z
" clip-path="url(#p7edf0c950d)" style="opacity: 0.4"/>
   </g>
   <g id="patch_11">
    <path d="M 448.126384 149.290611 
L 567.672002 149.290611 
L 567.672002 162.188457 
L 448.126384 162.188457 
z
" clip-path="url(#p7edf0c950d)" style="opacity: 0.4"/>
   </g>
   <g id="patch_12">
    <path d="M 514.248685 165.412918 
L 607.958437 165.412918 
L 607.958437 178.310763 
L 514.248685 178.310763 
z
" clip-path="url(#p7edf0c950d)" style="opacity: 0.4"/>
   </g>
   <g id="patch_13">
    <path d="M 581.246779 181.535224 
L 647.36908 181.535224 
L 647.36908 194.433069 
L 581.246779 194.433069 
z
" clip-path="url(#p7edf0c950d)" style="opacity: 0.4"/>
   </g>
   <g id="patch_14">
    <path d="M 607.958437 197.65753 
L 687.217619 197.65753 
L 687.217619 210.555376 
L 607.958437 210.555376 
z
" clip-path="url(#p7edf0c950d)" style="opacity: 0.4"/>
   </g>
   <g id="matplotlib.axis_1">
    <g id="xtick_1">
     <g id="line2d_1">
      <defs>
       <path id="m6ec6404f30" d="M 0 0 
L 0 3.5 
" style="stroke: #000000; stroke-width: 0.8"/>
      </defs>
      <g>
       <use xlink:href="#m6ec6404f30" x="261.144777" y="220.067536" style="stroke: #000000; stroke-width: 0.8"/>
      </g>
     </g>
     <g id="text_1">
      <!-- 2023-11 -->
      <g transform="translate(248.323495 261.985353) rotate(-45) scale(0.1 -0.1)">
       <defs>
        <path id="DejaVuSans-32" d="M 1228 531 
L 3431 531 
L 3431 0 
L 469 0 
L 469 531 
Q 828 903 1448 1529 
Q 2069 2156 2228 2338 
Q 2531 2678 2651 2914 
Q 2772 3150 2772 3378 
Q 2772 3750 2511 3984 
Q 2250 4219 1831 4219 
Q 1534 4219 1204 4116 
Q 875 4013 500 3803 
L 500 4441 
Q 881 4594 1212 4672 
Q 1544 4750 1819 4750 
Q 2544 4750 2975 4387 
Q 3406 4025 3406 3419 
Q 3406 3131 3298 2873 
Q 3191 2616 2906 2266 
Q 2828 2175 2409 1742 
Q 1991 1309 1228 531 
z
" transform="scale(0.015625)"/>
        <path id="DejaVuSans-30" d="M 2034 4250 
Q 1547 4250 1301 3770 
Q 1056 3291 1056 2328 
Q 1056 1369 1301 889 
Q 1547 409 2034 409 
Q 2525 409 2770 889 
Q 3016 1369 3016 2328 
Q 3016 3291 2770 3770 
Q 2525 4250 2034 4250 
z
M 2034 4750 
Q 2819 4750 3233 4129 
Q 3647 3509 3647 2328 
Q 3647 1150 3233 529 
Q 2819 -91 2034 -91 
Q 1250 -91 836 529 
Q 422 1150 422 2328 
Q 422 3509 836 4129 
Q 1250 4750 2034 4750 
z
" transform="scale(0.015625)"/>
        <path id="DejaVuSans-33" d="M 2597 2516 
Q 3050 2419 3304 2112 
Q 3559 1806 3559 1356 
Q 3559 666 3084 287 
Q 2609 -91 1734 -91 
Q 1441 -91 1130 -33 
Q 819 25 488 141 
L 488 750 
Q 750 597 1062 519 
Q 1375 441 1716 441 
Q 2309 441 2620 675 
Q 2931 909 2931 1356 
Q 2931 1769 2642 2001 
Q 2353 2234 1838 2234 
L 1294 2234 
L 1294 2753 
L 1863 2753 
Q 2328 2753 2575 2939 
Q 2822 3125 2822 3475 
Q 2822 3834 2567 4026 
Q 2313 4219 1838 4219 
Q 1578 4219 1281 4162 
Q 984 4106 628 3988 
L 628 4550 
Q 988 4650 1302 4700 
Q 1616 4750 1894 4750 
Q 2613 4750 3031 4423 
Q 3450 4097 3450 3541 
Q 3450 3153 3228 2886 
Q 3006 2619 2597 2516 
z
" transform="scale(0.015625)"/>
        <path id="DejaVuSans-2d" d="M 313 2009 
L 1997 2009 
L 1997 1497 
L 313 1497 
L 313 2009 
z
" transform="scale(0.015625)"/>
        <path id="DejaVuSans-31" d="M 794 531 
L 1825 531 
L 1825 4091 
L 703 3866 
L 703 4441 
L 1819 4666 
L 2450 4666 
L 2450 531 
L 3481 531 
L 3481 0 
L 794 0 
L 794 531 
z
" transform="scale(0.015625)"/>
       </defs>
       <use xlink:href="#DejaVuSans-32"/>
       <use xlink:href="#DejaVuSans-30" x="63.623047"/>
       <use xlink:href="#DejaVuSans-32" x="127.246094"/>
       <use xlink:href="#DejaVuSans-33" x="190.869141"/>
       <use xlink:href="#DejaVuSans-2d" x="254.492188"/>
       <use xlink:href="#DejaVuSans-31" x="290.576172"/>
       <use xlink:href="#DejaVuSans-31" x="354.199219"/>
      </g>
     </g>
    </g>
    <g id="xtick_2">
     <g id="line2d_2">
      <g>
       <use xlink:href="#m6ec6404f30" x="287.856435" y="220.067536" style="stroke: #000000; stroke-width: 0.8"/>
      </g>
     </g>
     <g id="text_2">
      <!-- 2024-01 -->
      <g transform="translate(275.035153 261.985353) rotate(-45) scale(0.1 -0.1)">
       <defs>
        <path id="DejaVuSans-34" d="M 2419 4116 
L 825 1625 
L 2419 1625 
L 2419 4116 
z
M 2253 4666 
L 3047 4666 
L 3047 1625 
L 3713 1625 
L 3713 1100 
L 3047 1100 
L 3047 0 
L 2419 0 
L 2419 1100 
L 313 1100 
L 313 1709 
L 2253 4666 
z
" transform="scale(0.015625)"/>
       </defs>
       <use xlink:href="#DejaVuSans-32"/>
       <use xlink:href="#DejaVuSans-30" x="63.623047"/>
       <use xlink:href="#DejaVuSans-32" x="127.246094"/>
       <use xlink:href="#DejaVuSans-34" x="190.869141"/>
       <use xlink:href="#DejaVuSans-2d" x="254.492188"/>
       <use xlink:href="#DejaVuSans-30" x="290.576172"/>
       <use xlink:href="#DejaVuSans-31" x="354.199219"/>
      </g>
     </g>
    </g>
    <g id="xtick_3">
     <g id="line2d_3">
      <g>
       <use xlink:href="#m6ec6404f30" x="314.130197" y="220.067536" style="stroke: #000000; stroke-width: 0.8"/>
      </g>
     </g>
     <g id="text_3">
      <!-- 2024-03 -->
      <g transform="translate(301.308915 261.985353) rotate(-45) scale(0.1 -0.1)">
       <use xlink:href="#DejaVuSans-32"/>
       <use xlink:href="#DejaVuSans-30" x="63.623047"/>
       <use xlink:href="#DejaVuSans-32" x="127.246094"/>
       <use xlink:href="#DejaVuSans-34" x="190.869141"/>
       <use xlink:href="#DejaVuSans-2d" x="254.492188"/>
       <use xlink:href="#DejaVuSans-30" x="290.576172"/>
       <use xlink:href="#DejaVuSans-33" x="354.199219"/>
      </g>
     </g>
    </g>
    <g id="xtick_4">
     <g id="line2d_4">
      <g>
       <use xlink:href="#m6ec6404f30" x="340.841855" y="220.067536" style="stroke: #000000; stroke-width: 0.8"/>
      </g>
     </g>
     <g id="text_4">
      <!-- 2024-05 -->
      <g transform="translate(328.020573 261.985353) rotate(-45) scale(0.1 -0.1)">
       <defs>
        <path id="DejaVuSans-35" d="M 691 4666 
L 3169 4666 
L 3169 4134 
L 1269 4134 
L 1269 2991 
Q 1406 3038 1543 3061 
Q 1681 3084 1819 3084 
Q 2600 3084 3056 2656 
Q 3513 2228 3513 1497 
Q 3513 744 3044 326 
Q 2575 -91 1722 -91 
Q 1428 -91 1123 -41 
Q 819 9 494 109 
L 494 744 
Q 775 591 1075 516 
Q 1375 441 1709 441 
Q 2250 441 2565 725 
Q 2881 1009 2881 1497 
Q 2881 1984 2565 2268 
Q 2250 2553 1709 2553 
Q 1456 2553 1204 2497 
Q 953 2441 691 2322 
L 691 4666 
z
" transform="scale(0.015625)"/>
       </defs>
       <use xlink:href="#DejaVuSans-32"/>
       <use xlink:href="#DejaVuSans-30" x="63.623047"/>
       <use xlink:href="#DejaVuSans-32" x="127.246094"/>
       <use xlink:href="#DejaVuSans-34" x="190.869141"/>
       <use xlink:href="#DejaVuSans-2d" x="254.492188"/>
       <use xlink:href="#DejaVuSans-30" x="290.576172"/>
       <use xlink:href="#DejaVuSans-35" x="354.199219"/>
      </g>
     </g>
    </g>
    <g id="xtick_5">
     <g id="line2d_5">
      <g>
       <use xlink:href="#m6ec6404f30" x="367.553514" y="220.067536" style="stroke: #000000; stroke-width: 0.8"/>
      </g>
     </g>
     <g id="text_5">
      <!-- 2024-07 -->
      <g transform="translate(354.732231 261.985353) rotate(-45) scale(0.1 -0.1)">
       <defs>
        <path id="DejaVuSans-37" d="M 525 4666 
L 3525 4666 
L 3525 4397 
L 1831 0 
L 1172 0 
L 2766 4134 
L 525 4134 
L 525 4666 
z
" transform="scale(0.015625)"/>
       </defs>
       <use xlink:href="#DejaVuSans-32"/>
       <use xlink:href="#DejaVuSans-30" x="63.623047"/>
       <use xlink:href="#DejaVuSans-32" x="127.246094"/>
       <use xlink:href="#DejaVuSans-34" x="190.869141"/>
       <use xlink:href="#DejaVuSans-2d" x="254.492188"/>
       <use xlink:href="#DejaVuSans-30" x="290.576172"/>
       <use xlink:href="#DejaVuSans-37" x="354.199219"/>
      </g>
     </g>
    </g>
    <g id="xtick_6">
     <g id="line2d_6">
      <g>
       <use xlink:href="#m6ec6404f30" x="394.703068" y="220.067536" style="stroke: #000000; stroke-width: 0.8"/>
      </g>
     </g>
     <g id="text_6">
      <!-- 2024-09 -->
      <g transform="translate(381.881785 261.985353) rotate(-45) scale(0.1 -0.1)">
       <defs>
        <path id="DejaVuSans-39" d="M 703 97 
L 703 672 
Q 941 559 1184 500 
Q 1428 441 1663 441 
Q 2288 441 2617 861 
Q 2947 1281 2994 2138 
Q 2813 1869 2534 1725 
Q 2256 1581 1919 1581 
Q 1219 1581 811 2004 
Q 403 2428 403 3163 
Q 403 3881 828 4315 
Q 1253 4750 1959 4750 
Q 2769 4750 3195 4129 
Q 3622 3509 3622 2328 
Q 3622 1225 3098 567 
Q 2575 -91 1691 -91 
Q 1453 -91 1209 -44 
Q 966 3 703 97 
z
M 1959 2075 
Q 2384 2075 2632 2365 
Q 2881 2656 2881 3163 
Q 2881 3666 2632 3958 
Q 2384 4250 1959 4250 
Q 1534 4250 1286 3958 
Q 1038 3666 1038 3163 
Q 1038 2656 1286 2365 
Q 1534 2075 1959 2075 
z
" transform="scale(0.015625)"/>
       </defs>
       <use xlink:href="#DejaVuSans-32"/>
       <use xlink:href="#DejaVuSans-30" x="63.623047"/>
       <use xlink:href="#DejaVuSans-32" x="127.246094"/>
       <use xlink:href="#DejaVuSans-34" x="190.869141"/>
       <use xlink:href="#DejaVuSans-2d" x="254.492188"/>
       <use xlink:href="#DejaVuSans-30" x="290.576172"/>
       <use xlink:href="#DejaVuSans-39" x="354.199219"/>
      </g>
     </g>
    </g>
    <g id="xtick_7">
     <g id="line2d_7">
      <g>
       <use xlink:href="#m6ec6404f30" x="421.414726" y="220.067536" style="stroke: #000000; stroke-width: 0.8"/>
      </g>
     </g>
     <g id="text_7">
      <!-- 2024-11 -->
      <g transform="translate(408.593444 261.985353) rotate(-45) scale(0.1 -0.1)">
       <use xlink:href="#DejaVuSans-32"/>
       <use xlink:href="#DejaVuSans-30" x="63.623047"/>
       <use xlink:href="#DejaVuSans-32" x="127.246094"/>
       <use xlink:href="#DejaVuSans-34" x="190.869141"/>
       <use xlink:href="#DejaVuSans-2d" x="254.492188"/>
       <use xlink:href="#DejaVuSans-31" x="290.576172"/>
       <use xlink:href="#DejaVuSans-31" x="354.199219"/>
      </g>
     </g>
    </g>
    <g id="xtick_8">
     <g id="line2d_8">
      <g>
       <use xlink:href="#m6ec6404f30" x="448.126384" y="220.067536" style="stroke: #000000; stroke-width: 0.8"/>
      </g>
     </g>
     <g id="text_8">
      <!-- 2025-01 -->
      <g transform="translate(435.305102 261.985353) rotate(-45) scale(0.1 -0.1)">
       <use xlink:href="#DejaVuSans-32"/>
       <use xlink:href="#DejaVuSans-30" x="63.623047"/>
       <use xlink:href="#DejaVuSans-32" x="127.246094"/>
       <use xlink:href="#DejaVuSans-35" x="190.869141"/>
       <use xlink:href="#DejaVuSans-2d" x="254.492188"/>
       <use xlink:href="#DejaVuSans-30" x="290.576172"/>
       <use xlink:href="#DejaVuSans-31" x="354.199219"/>
      </g>
     </g>
    </g>
    <g id="xtick_9">
     <g id="line2d_9">
      <g>
       <use xlink:href="#m6ec6404f30" x="473.96225" y="220.067536" style="stroke: #000000; stroke-width: 0.8"/>
      </g>
     </g>
     <g id="text_9">
      <!-- 2025-03 -->
      <g transform="translate(461.140968 261.985353) rotate(-45) scale(0.1 -0.1)">
       <use xlink:href="#DejaVuSans-32"/>
       <use xlink:href="#DejaVuSans-30" x="63.623047"/>
       <use xlink:href="#DejaVuSans-32" x="127.246094"/>
       <use xlink:href="#DejaVuSans-35" x="190.869141"/>
       <use xlink:href="#DejaVuSans-2d" x="254.492188"/>
       <use xlink:href="#DejaVuSans-30" x="290.576172"/>
       <use xlink:href="#DejaVuSans-33" x="354.199219"/>
      </g>
     </g>
    </g>
    <g id="xtick_10">
     <g id="line2d_10">
      <g>
       <use xlink:href="#m6ec6404f30" x="500.673908" y="220.067536" style="stroke: #000000; stroke-width: 0.8"/>
      </g>
     </g>
     <g id="text_10">
      <!-- 2025-05 -->
      <g transform="translate(487.852626 261.985353) rotate(-45) scale(0.1 -0.1)">
       <use xlink:href="#DejaVuSans-32"/>
       <use xlink:href="#DejaVuSans-30" x="63.623047"/>
       <use xlink:href="#DejaVuSans-32" x="127.246094"/>
       <use xlink:href="#DejaVuSans-35" x="190.869141"/>
       <use xlink:href="#DejaVuSans-2d" x="254.492188"/>
       <use xlink:href="#DejaVuSans-30" x="290.576172"/>
       <use xlink:href="#DejaVuSans-35" x="354.199219"/>
      </g>
     </g>
    </g>
    <g id="xtick_11">
     <g id="line2d_11">
      <g>
       <use xlink:href="#m6ec6404f30" x="527.385566" y="220.067536" style="stroke: #000000; stroke-width: 0.8"/>
      </g>
     </g>
     <g id="text_11">
      <!-- 2025-07 -->
      <g transform="translate(514.564284 261.985353) rotate(-45) scale(0.1 -0.1)">
       <use xlink:href="#DejaVuSans-32"/>
       <use xlink:href="#DejaVuSans-30" x="63.623047"/>
       <use xlink:href="#DejaVuSans-32" x="127.246094"/>
       <use xlink:href="#DejaVuSans-35" x="190.869141"/>
       <use xlink:href="#DejaVuSans-2d" x="254.492188"/>
       <use xlink:href="#DejaVuSans-30" x="290.576172"/>
       <use xlink:href="#DejaVuSans-37" x="354.199219"/>
      </g>
     </g>
    </g>
    <g id="xtick_12">
     <g id="line2d_12">
      <g>
       <use xlink:href="#m6ec6404f30" x="554.53512" y="220.067536" style="stroke: #000000; stroke-width: 0.8"/>
      </g>
     </g>
     <g id="text_12">
      <!-- 2025-09 -->
      <g transform="translate(541.713838 261.985353) rotate(-45) scale(0.1 -0.1)">
       <use xlink:href="#DejaVuSans-32"/>
       <use xlink:href="#DejaVuSans-30" x="63.623047"/>
       <use xlink:href="#DejaVuSans-32" x="127.246094"/>
       <use xlink:href="#DejaVuSans-35" x="190.869141"/>
       <use xlink:href="#DejaVuSans-2d" x="254.492188"/>
       <use xlink:href="#DejaVuSans-30" x="290.576172"/>
       <use xlink:href="#DejaVuSans-39" x="354.199219"/>
      </g>
     </g>
    </g>
    <g id="xtick_13">
     <g id="line2d_13">
      <g>
       <use xlink:href="#m6ec6404f30" x="581.246779" y="220.067536" style="stroke: #000000; stroke-width: 0.8"/>
      </g>
     </g>
     <g id="text_13">
      <!-- 2025-11 -->
      <g transform="translate(568.425496 261.985353) rotate(-45) scale(0.1 -0.1)">
       <use xlink:href="#DejaVuSans-32"/>
       <use xlink:href="#DejaVuSans-30" x="63.623047"/>
       <use xlink:href="#DejaVuSans-32" x="127.246094"/>
       <use xlink:href="#DejaVuSans-35" x="190.869141"/>
       <use xlink:href="#DejaVuSans-2d" x="254.492188"/>
       <use xlink:href="#DejaVuSans-31" x="290.576172"/>
       <use xlink:href="#DejaVuSans-31" x="354.199219"/>
      </g>
     </g>
    </g>
    <g id="xtick_14">
     <g id="line2d_14">
      <g>
       <use xlink:href="#m6ec6404f30" x="607.958437" y="220.067536" style="stroke: #000000; stroke-width: 0.8"/>
      </g>
     </g>
     <g id="text_14">
      <!-- 2026-01 -->
      <g transform="translate(595.137154 261.985353) rotate(-45) scale(0.1 -0.1)">
       <defs>
        <path id="DejaVuSans-36" d="M 2113 2584 
Q 1688 2584 1439 2293 
Q 1191 2003 1191 1497 
Q 1191 994 1439 701 
Q 1688 409 2113 409 
Q 2538 409 2786 701 
Q 3034 994 3034 1497 
Q 3034 2003 2786 2293 
Q 2538 2584 2113 2584 
z
M 3366 4563 
L 3366 3988 
Q 3128 4100 2886 4159 
Q 2644 4219 2406 4219 
Q 1781 4219 1451 3797 
Q 1122 3375 1075 2522 
Q 1259 2794 1537 2939 
Q 1816 3084 2150 3084 
Q 2853 3084 3261 2657 
Q 3669 2231 3669 1497 
Q 3669 778 3244 343 
Q 2819 -91 2113 -91 
Q 1303 -91 875 529 
Q 447 1150 447 2328 
Q 447 3434 972 4092 
Q 1497 4750 2381 4750 
Q 2619 4750 2861 4703 
Q 3103 4656 3366 4563 
z
" transform="scale(0.015625)"/>
       </defs>
       <use xlink:href="#DejaVuSans-32"/>
       <use xlink:href="#DejaVuSans-30" x="63.623047"/>
       <use xlink:href="#DejaVuSans-32" x="127.246094"/>
       <use xlink:href="#DejaVuSans-36" x="190.869141"/>
       <use xlink:href="#DejaVuSans-2d" x="254.492188"/>
       <use xlink:href="#DejaVuSans-30" x="290.576172"/>
       <use xlink:href="#DejaVuSans-31" x="354.199219"/>
      </g>
     </g>
    </g>
    <g id="xtick_15">
     <g id="line2d_15">
      <g>
       <use xlink:href="#m6ec6404f30" x="633.794303" y="220.067536" style="stroke: #000000; stroke-width: 0.8"/>
      </g>
     </g>
     <g id="text_15">
      <!-- 2026-03 -->
      <g transform="translate(620.973021 261.985353) rotate(-45) scale(0.1 -0.1)">
       <use xlink:href="#DejaVuSans-32"/>
       <use xlink:href="#DejaVuSans-30" x="63.623047"/>
       <use xlink:href="#DejaVuSans-32" x="127.246094"/>
       <use xlink:href="#DejaVuSans-36" x="190.869141"/>
       <use xlink:href="#DejaVuSans-2d" x="254.492188"/>
       <use xlink:href="#DejaVuSans-30" x="290.576172"/>
       <use xlink:href="#DejaVuSans-33" x="354.199219"/>
      </g>
     </g>
    </g>
    <g id="xtick_16">
     <g id="line2d_16">
      <g>
       <use xlink:href="#m6ec6404f30" x="660.505961" y="220.067536" style="stroke: #000000; stroke-width: 0.8"/>
      </g>
     </g>
     <g id="text_16">
      <!-- 2026-05 -->
      <g transform="translate(647.684679 261.985353) rotate(-45) scale(0.1 -0.1)">
       <use xlink:href="#DejaVuSans-32"/>
       <use xlink:href="#DejaVuSans-30" x="63.623047"/>
       <use xlink:href="#DejaVuSans-32" x="127.246094"/>
       <use xlink:href="#DejaVuSans-36" x="190.869141"/>
       <use xlink:href="#DejaVuSans-2d" x="254.492188"/>
       <use xlink:href="#DejaVuSans-30" x="290.576172"/>
       <use xlink:href="#DejaVuSans-35" x="354.199219"/>
      </g>
     </g>
    </g>
    <g id="xtick_17">
     <g id="line2d_17">
      <g>
       <use xlink:href="#m6ec6404f30" x="687.217619" y="220.067536" style="stroke: #000000; stroke-width: 0.8"/>
      </g>
     </g>
     <g id="text_17">
      <!-- 2026-07 -->
      <g transform="translate(674.396337 261.985353) rotate(-45) scale(0.1 -0.1)">
       <use xlink:href="#DejaVuSans-32"/>
       <use xlink:href="#DejaVuSans-30" x="63.623047"/>
       <use xlink:href="#DejaVuSans-32" x="127.246094"/>
       <use xlink:href="#DejaVuSans-36" x="190.869141"/>
       <use xlink:href="#DejaVuSans-2d" x="254.492188"/>
       <use xlink:href="#DejaVuSans-30" x="290.576172"/>
       <use xlink:href="#DejaVuSans-37" x="354.199219"/>
      </g>
     </g>
    </g>
    <g id="text_18">
     <!-- Date -->
     <g transform="translate(466.434219 275.054352) scale(0.1 -0.1)">
      <defs>
       <path id="DejaVuSans-44" d="M 1259 4147 
L 1259 519 
L 2022 519 
Q 2988 519 3436 956 
Q 3884 1394 3884 2338 
Q 3884 3275 3436 3711 
Q 2988 4147 2022 4147 
L 1259 4147 
z
M 628 4666 
L 1925 4666 
Q 3281 4666 3915 4102 
Q 4550 3538 4550 2338 
Q 4550 1131 3912 565 
Q 3275 0 1925 0 
L 628 0 
L 628 4666 
z
" transform="scale(0.015625)"/>
       <path id="DejaVuSans-61" d="M 2194 1759 
Q 1497 1759 1228 1600 
Q 959 1441 959 1056 
Q 959 750 1161 570 
Q 1363 391 1709 391 
Q 2188 391 2477 730 
Q 2766 1069 2766 1631 
L 2766 1759 
L 2194 1759 
z
M 3341 1997 
L 3341 0 
L 2766 0 
L 2766 531 
Q 2569 213 2275 61 
Q 1981 -91 1556 -91 
Q 1019 -91 701 211 
Q 384 513 384 1019 
Q 384 1609 779 1909 
Q 1175 2209 1959 2209 
L 2766 2209 
L 2766 2266 
Q 2766 2663 2505 2880 
Q 2244 3097 1772 3097 
Q 1472 3097 1187 3025 
Q 903 2953 641 2809 
L 641 3341 
Q 956 3463 1253 3523 
Q 1550 3584 1831 3584 
Q 2591 3584 2966 3190 
Q 3341 2797 3341 1997 
z
" transform="scale(0.015625)"/>
       <path id="DejaVuSans-74" d="M 1172 4494 
L 1172 3500 
L 2356 3500 
L 2356 3053 
L 1172 3053 
L 1172 1153 
Q 1172 725 1289 603 
Q 1406 481 1766 481 
L 2356 481 
L 2356 0 
L 1766 0 
Q 1100 0 847 248 
Q 594 497 594 1153 
L 594 3053 
L 172 3053 
L 172 3500 
L 594 3500 
L 594 4494 
L 1172 4494 
z
" transform="scale(0.015625)"/>
       <path id="DejaVuSans-65" d="M 3597 1894 
L 3597 1613 
L 953 1613 
Q 991 1019 1311 708 
Q 1631 397 2203 397 
Q 2534 397 2845 478 
Q 3156 559 3463 722 
L 3463 178 
Q 3153 47 2828 -22 
Q 2503 -91 2169 -91 
Q 1331 -91 842 396 
Q 353 884 353 1716 
Q 353 2575 817 3079 
Q 1281 3584 2069 3584 
Q 2775 3584 3186 3129 
Q 3597 2675 3597 1894 
z
M 3022 2063 
Q 3016 2534 2758 2815 
Q 2500 3097 2075 3097 
Q 1594 3097 1305 2825 
Q 1016 2553 972 2059 
L 3022 2063 
z
" transform="scale(0.015625)"/>
      </defs>
      <use xlink:href="#DejaVuSans-44"/>
      <use xlink:href="#DejaVuSans-61" x="77.001953"/>
      <use xlink:href="#DejaVuSans-74" x="138.28125"/>
      <use xlink:href="#DejaVuSans-65" x="177.490234"/>
     </g>
    </g>
   </g>
   <g id="matplotlib.axis_2">
    <g id="ytick_1">
     <g id="line2d_18">
      <defs>
       <path id="m04b463cb77" d="M 0 0 
L -3.5 0 
" style="stroke: #000000; stroke-width: 0.8"/>
      </defs>
      <g>
       <use xlink:href="#m04b463cb77" x="247.57" y="26.761083" style="stroke: #000000; stroke-width: 0.8"/>
      </g>
     </g>
     <g id="text_19">
      <!-- Literature Review -->
      <g transform="translate(152.752813 30.560302) scale(0.1 -0.1)">
       <defs>
        <path id="DejaVuSans-4c" d="M 628 4666 
L 1259 4666 
L 1259 531 
L 3531 531 
L 3531 0 
L 628 0 
L 628 4666 
z
" transform="scale(0.015625)"/>
        <path id="DejaVuSans-69" d="M 603 3500 
L 1178 3500 
L 1178 0 
L 603 0 
L 603 3500 
z
M 603 4863 
L 1178 4863 
L 1178 4134 
L 603 4134 
L 603 4863 
z
" transform="scale(0.015625)"/>
        <path id="DejaVuSans-72" d="M 2631 2963 
Q 2534 3019 2420 3045 
Q 2306 3072 2169 3072 
Q 1681 3072 1420 2755 
Q 1159 2438 1159 1844 
L 1159 0 
L 581 0 
L 581 3500 
L 1159 3500 
L 1159 2956 
Q 1341 3275 1631 3429 
Q 1922 3584 2338 3584 
Q 2397 3584 2469 3576 
Q 2541 3569 2628 3553 
L 2631 2963 
z
" transform="scale(0.015625)"/>
        <path id="DejaVuSans-75" d="M 544 1381 
L 544 3500 
L 1119 3500 
L 1119 1403 
Q 1119 906 1312 657 
Q 1506 409 1894 409 
Q 2359 409 2629 706 
Q 2900 1003 2900 1516 
L 2900 3500 
L 3475 3500 
L 3475 0 
L 2900 0 
L 2900 538 
Q 2691 219 2414 64 
Q 2138 -91 1772 -91 
Q 1169 -91 856 284 
Q 544 659 544 1381 
z
M 1991 3584 
L 1991 3584 
z
" transform="scale(0.015625)"/>
        <path id="DejaVuSans-20" transform="scale(0.015625)"/>
        <path id="DejaVuSans-52" d="M 2841 2188 
Q 3044 2119 3236 1894 
Q 3428 1669 3622 1275 
L 4263 0 
L 3584 0 
L 2988 1197 
Q 2756 1666 2539 1819 
Q 2322 1972 1947 1972 
L 1259 1972 
L 1259 0 
L 628 0 
L 628 4666 
L 2053 4666 
Q 2853 4666 3247 4331 
Q 3641 3997 3641 3322 
Q 3641 2881 3436 2590 
Q 3231 2300 2841 2188 
z
M 1259 4147 
L 1259 2491 
L 2053 2491 
Q 2509 2491 2742 2702 
Q 2975 2913 2975 3322 
Q 2975 3731 2742 3939 
Q 2509 4147 2053 4147 
L 1259 4147 
z
" transform="scale(0.015625)"/>
        <path id="DejaVuSans-76" d="M 191 3500 
L 800 3500 
L 1894 563 
L 2988 3500 
L 3597 3500 
L 2284 0 
L 1503 0 
L 191 3500 
z
" transform="scale(0.015625)"/>
        <path id="DejaVuSans-77" d="M 269 3500 
L 844 3500 
L 1563 769 
L 2278 3500 
L 2956 3500 
L 3675 769 
L 4391 3500 
L 4966 3500 
L 4050 0 
L 3372 0 
L 2619 2869 
L 1863 0 
L 1184 0 
L 269 3500 
z
" transform="scale(0.015625)"/>
       </defs>
       <use xlink:href="#DejaVuSans-4c"/>
       <use xlink:href="#DejaVuSans-69" x="55.712891"/>
       <use xlink:href="#DejaVuSans-74" x="83.496094"/>
       <use xlink:href="#DejaVuSans-65" x="122.705078"/>
       <use xlink:href="#DejaVuSans-72" x="184.228516"/>
       <use xlink:href="#DejaVuSans-61" x="225.341797"/>
       <use xlink:href="#DejaVuSans-74" x="286.621094"/>
       <use xlink:href="#DejaVuSans-75" x="325.830078"/>
       <use xlink:href="#DejaVuSans-72" x="389.208984"/>
       <use xlink:href="#DejaVuSans-65" x="428.072266"/>
       <use xlink:href="#DejaVuSans-20" x="489.595703"/>
       <use xlink:href="#DejaVuSans-52" x="521.382812"/>
       <use xlink:href="#DejaVuSans-65" x="586.365234"/>
       <use xlink:href="#DejaVuSans-76" x="647.888672"/>
       <use xlink:href="#DejaVuSans-69" x="707.068359"/>
       <use xlink:href="#DejaVuSans-65" x="734.851562"/>
       <use xlink:href="#DejaVuSans-77" x="796.375"/>
      </g>
     </g>
    </g>
    <g id="ytick_2">
     <g id="line2d_19">
      <g>
       <use xlink:href="#m04b463cb77" x="247.57" y="42.88339" style="stroke: #000000; stroke-width: 0.8"/>
      </g>
     </g>
     <g id="text_20">
      <!-- Testing Causal Models -->
      <g transform="translate(130.259063 46.682608) scale(0.1 -0.1)">
       <defs>
        <path id="DejaVuSans-54" d="M -19 4666 
L 3928 4666 
L 3928 4134 
L 2272 4134 
L 2272 0 
L 1638 0 
L 1638 4134 
L -19 4134 
L -19 4666 
z
" transform="scale(0.015625)"/>
        <path id="DejaVuSans-73" d="M 2834 3397 
L 2834 2853 
Q 2591 2978 2328 3040 
Q 2066 3103 1784 3103 
Q 1356 3103 1142 2972 
Q 928 2841 928 2578 
Q 928 2378 1081 2264 
Q 1234 2150 1697 2047 
L 1894 2003 
Q 2506 1872 2764 1633 
Q 3022 1394 3022 966 
Q 3022 478 2636 193 
Q 2250 -91 1575 -91 
Q 1294 -91 989 -36 
Q 684 19 347 128 
L 347 722 
Q 666 556 975 473 
Q 1284 391 1588 391 
Q 1994 391 2212 530 
Q 2431 669 2431 922 
Q 2431 1156 2273 1281 
Q 2116 1406 1581 1522 
L 1381 1569 
Q 847 1681 609 1914 
Q 372 2147 372 2553 
Q 372 3047 722 3315 
Q 1072 3584 1716 3584 
Q 2034 3584 2315 3537 
Q 2597 3491 2834 3397 
z
" transform="scale(0.015625)"/>
        <path id="DejaVuSans-6e" d="M 3513 2113 
L 3513 0 
L 2938 0 
L 2938 2094 
Q 2938 2591 2744 2837 
Q 2550 3084 2163 3084 
Q 1697 3084 1428 2787 
Q 1159 2491 1159 1978 
L 1159 0 
L 581 0 
L 581 3500 
L 1159 3500 
L 1159 2956 
Q 1366 3272 1645 3428 
Q 1925 3584 2291 3584 
Q 2894 3584 3203 3211 
Q 3513 2838 3513 2113 
z
" transform="scale(0.015625)"/>
        <path id="DejaVuSans-67" d="M 2906 1791 
Q 2906 2416 2648 2759 
Q 2391 3103 1925 3103 
Q 1463 3103 1205 2759 
Q 947 2416 947 1791 
Q 947 1169 1205 825 
Q 1463 481 1925 481 
Q 2391 481 2648 825 
Q 2906 1169 2906 1791 
z
M 3481 434 
Q 3481 -459 3084 -895 
Q 2688 -1331 1869 -1331 
Q 1566 -1331 1297 -1286 
Q 1028 -1241 775 -1147 
L 775 -588 
Q 1028 -725 1275 -790 
Q 1522 -856 1778 -856 
Q 2344 -856 2625 -561 
Q 2906 -266 2906 331 
L 2906 616 
Q 2728 306 2450 153 
Q 2172 0 1784 0 
Q 1141 0 747 490 
Q 353 981 353 1791 
Q 353 2603 747 3093 
Q 1141 3584 1784 3584 
Q 2172 3584 2450 3431 
Q 2728 3278 2906 2969 
L 2906 3500 
L 3481 3500 
L 3481 434 
z
" transform="scale(0.015625)"/>
        <path id="DejaVuSans-43" d="M 4122 4306 
L 4122 3641 
Q 3803 3938 3442 4084 
Q 3081 4231 2675 4231 
Q 1875 4231 1450 3742 
Q 1025 3253 1025 2328 
Q 1025 1406 1450 917 
Q 1875 428 2675 428 
Q 3081 428 3442 575 
Q 3803 722 4122 1019 
L 4122 359 
Q 3791 134 3420 21 
Q 3050 -91 2638 -91 
Q 1578 -91 968 557 
Q 359 1206 359 2328 
Q 359 3453 968 4101 
Q 1578 4750 2638 4750 
Q 3056 4750 3426 4639 
Q 3797 4528 4122 4306 
z
" transform="scale(0.015625)"/>
        <path id="DejaVuSans-6c" d="M 603 4863 
L 1178 4863 
L 1178 0 
L 603 0 
L 603 4863 
z
" transform="scale(0.015625)"/>
        <path id="DejaVuSans-4d" d="M 628 4666 
L 1569 4666 
L 2759 1491 
L 3956 4666 
L 4897 4666 
L 4897 0 
L 4281 0 
L 4281 4097 
L 3078 897 
L 2444 897 
L 1241 4097 
L 1241 0 
L 628 0 
L 628 4666 
z
" transform="scale(0.015625)"/>
        <path id="DejaVuSans-6f" d="M 1959 3097 
Q 1497 3097 1228 2736 
Q 959 2375 959 1747 
Q 959 1119 1226 758 
Q 1494 397 1959 397 
Q 2419 397 2687 759 
Q 2956 1122 2956 1747 
Q 2956 2369 2687 2733 
Q 2419 3097 1959 3097 
z
M 1959 3584 
Q 2709 3584 3137 3096 
Q 3566 2609 3566 1747 
Q 3566 888 3137 398 
Q 2709 -91 1959 -91 
Q 1206 -91 779 398 
Q 353 888 353 1747 
Q 353 2609 779 3096 
Q 1206 3584 1959 3584 
z
" transform="scale(0.015625)"/>
        <path id="DejaVuSans-64" d="M 2906 2969 
L 2906 4863 
L 3481 4863 
L 3481 0 
L 2906 0 
L 2906 525 
Q 2725 213 2448 61 
Q 2172 -91 1784 -91 
Q 1150 -91 751 415 
Q 353 922 353 1747 
Q 353 2572 751 3078 
Q 1150 3584 1784 3584 
Q 2172 3584 2448 3432 
Q 2725 3281 2906 2969 
z
M 947 1747 
Q 947 1113 1208 752 
Q 1469 391 1925 391 
Q 2381 391 2643 752 
Q 2906 1113 2906 1747 
Q 2906 2381 2643 2742 
Q 2381 3103 1925 3103 
Q 1469 3103 1208 2742 
Q 947 2381 947 1747 
z
" transform="scale(0.015625)"/>
       </defs>
       <use xlink:href="#DejaVuSans-54"/>
       <use xlink:href="#DejaVuSans-65" x="44.083984"/>
       <use xlink:href="#DejaVuSans-73" x="105.607422"/>
       <use xlink:href="#DejaVuSans-74" x="157.707031"/>
       <use xlink:href="#DejaVuSans-69" x="196.916016"/>
       <use xlink:href="#DejaVuSans-6e" x="224.699219"/>
       <use xlink:href="#DejaVuSans-67" x="288.078125"/>
       <use xlink:href="#DejaVuSans-20" x="351.554688"/>
       <use xlink:href="#DejaVuSans-43" x="383.341797"/>
       <use xlink:href="#DejaVuSans-61" x="453.166016"/>
       <use xlink:href="#DejaVuSans-75" x="514.445312"/>
       <use xlink:href="#DejaVuSans-73" x="577.824219"/>
       <use xlink:href="#DejaVuSans-61" x="629.923828"/>
       <use xlink:href="#DejaVuSans-6c" x="691.203125"/>
       <use xlink:href="#DejaVuSans-20" x="718.986328"/>
       <use xlink:href="#DejaVuSans-4d" x="750.773438"/>
       <use xlink:href="#DejaVuSans-6f" x="837.052734"/>
       <use xlink:href="#DejaVuSans-64" x="898.234375"/>
       <use xlink:href="#DejaVuSans-65" x="961.710938"/>
       <use xlink:href="#DejaVuSans-6c" x="1023.234375"/>
       <use xlink:href="#DejaVuSans-73" x="1051.017578"/>
      </g>
     </g>
    </g>
    <g id="ytick_3">
     <g id="line2d_20">
      <g>
       <use xlink:href="#m04b463cb77" x="247.57" y="59.005696" style="stroke: #000000; stroke-width: 0.8"/>
      </g>
     </g>
     <g id="text_21">
      <!-- Study DO Events Using Causal Models -->
      <g transform="translate(49.584063 62.804915) scale(0.1 -0.1)">
       <defs>
        <path id="DejaVuSans-53" d="M 3425 4513 
L 3425 3897 
Q 3066 4069 2747 4153 
Q 2428 4238 2131 4238 
Q 1616 4238 1336 4038 
Q 1056 3838 1056 3469 
Q 1056 3159 1242 3001 
Q 1428 2844 1947 2747 
L 2328 2669 
Q 3034 2534 3370 2195 
Q 3706 1856 3706 1288 
Q 3706 609 3251 259 
Q 2797 -91 1919 -91 
Q 1588 -91 1214 -16 
Q 841 59 441 206 
L 441 856 
Q 825 641 1194 531 
Q 1563 422 1919 422 
Q 2459 422 2753 634 
Q 3047 847 3047 1241 
Q 3047 1584 2836 1778 
Q 2625 1972 2144 2069 
L 1759 2144 
Q 1053 2284 737 2584 
Q 422 2884 422 3419 
Q 422 4038 858 4394 
Q 1294 4750 2059 4750 
Q 2388 4750 2728 4690 
Q 3069 4631 3425 4513 
z
" transform="scale(0.015625)"/>
        <path id="DejaVuSans-79" d="M 2059 -325 
Q 1816 -950 1584 -1140 
Q 1353 -1331 966 -1331 
L 506 -1331 
L 506 -850 
L 844 -850 
Q 1081 -850 1212 -737 
Q 1344 -625 1503 -206 
L 1606 56 
L 191 3500 
L 800 3500 
L 1894 763 
L 2988 3500 
L 3597 3500 
L 2059 -325 
z
" transform="scale(0.015625)"/>
        <path id="DejaVuSans-4f" d="M 2522 4238 
Q 1834 4238 1429 3725 
Q 1025 3213 1025 2328 
Q 1025 1447 1429 934 
Q 1834 422 2522 422 
Q 3209 422 3611 934 
Q 4013 1447 4013 2328 
Q 4013 3213 3611 3725 
Q 3209 4238 2522 4238 
z
M 2522 4750 
Q 3503 4750 4090 4092 
Q 4678 3434 4678 2328 
Q 4678 1225 4090 567 
Q 3503 -91 2522 -91 
Q 1538 -91 948 565 
Q 359 1222 359 2328 
Q 359 3434 948 4092 
Q 1538 4750 2522 4750 
z
" transform="scale(0.015625)"/>
        <path id="DejaVuSans-45" d="M 628 4666 
L 3578 4666 
L 3578 4134 
L 1259 4134 
L 1259 2753 
L 3481 2753 
L 3481 2222 
L 1259 2222 
L 1259 531 
L 3634 531 
L 3634 0 
L 628 0 
L 628 4666 
z
" transform="scale(0.015625)"/>
        <path id="DejaVuSans-55" d="M 556 4666 
L 1191 4666 
L 1191 1831 
Q 1191 1081 1462 751 
Q 1734 422 2344 422 
Q 2950 422 3222 751 
Q 3494 1081 3494 1831 
L 3494 4666 
L 4128 4666 
L 4128 1753 
Q 4128 841 3676 375 
Q 3225 -91 2344 -91 
Q 1459 -91 1007 375 
Q 556 841 556 1753 
L 556 4666 
z
" transform="scale(0.015625)"/>
       </defs>
       <use xlink:href="#DejaVuSans-53"/>
       <use xlink:href="#DejaVuSans-74" x="63.476562"/>
       <use xlink:href="#DejaVuSans-75" x="102.685547"/>
       <use xlink:href="#DejaVuSans-64" x="166.064453"/>
       <use xlink:href="#DejaVuSans-79" x="229.541016"/>
       <use xlink:href="#DejaVuSans-20" x="288.720703"/>
       <use xlink:href="#DejaVuSans-44" x="320.507812"/>
       <use xlink:href="#DejaVuSans-4f" x="397.509766"/>
       <use xlink:href="#DejaVuSans-20" x="476.220703"/>
       <use xlink:href="#DejaVuSans-45" x="508.007812"/>
       <use xlink:href="#DejaVuSans-76" x="571.191406"/>
       <use xlink:href="#DejaVuSans-65" x="630.371094"/>
       <use xlink:href="#DejaVuSans-6e" x="691.894531"/>
       <use xlink:href="#DejaVuSans-74" x="755.273438"/>
       <use xlink:href="#DejaVuSans-73" x="794.482422"/>
       <use xlink:href="#DejaVuSans-20" x="846.582031"/>
       <use xlink:href="#DejaVuSans-55" x="878.369141"/>
       <use xlink:href="#DejaVuSans-73" x="951.5625"/>
       <use xlink:href="#DejaVuSans-69" x="1003.662109"/>
       <use xlink:href="#DejaVuSans-6e" x="1031.445312"/>
       <use xlink:href="#DejaVuSans-67" x="1094.824219"/>
       <use xlink:href="#DejaVuSans-20" x="1158.300781"/>
       <use xlink:href="#DejaVuSans-43" x="1190.087891"/>
       <use xlink:href="#DejaVuSans-61" x="1259.912109"/>
       <use xlink:href="#DejaVuSans-75" x="1321.191406"/>
       <use xlink:href="#DejaVuSans-73" x="1384.570312"/>
       <use xlink:href="#DejaVuSans-61" x="1436.669922"/>
       <use xlink:href="#DejaVuSans-6c" x="1497.949219"/>
       <use xlink:href="#DejaVuSans-20" x="1525.732422"/>
       <use xlink:href="#DejaVuSans-4d" x="1557.519531"/>
       <use xlink:href="#DejaVuSans-6f" x="1643.798828"/>
       <use xlink:href="#DejaVuSans-64" x="1704.980469"/>
       <use xlink:href="#DejaVuSans-65" x="1768.457031"/>
       <use xlink:href="#DejaVuSans-6c" x="1829.980469"/>
       <use xlink:href="#DejaVuSans-73" x="1857.763672"/>
      </g>
     </g>
    </g>
    <g id="ytick_4">
     <g id="line2d_21">
      <g>
       <use xlink:href="#m04b463cb77" x="247.57" y="75.128002" style="stroke: #000000; stroke-width: 0.8"/>
      </g>
     </g>
     <g id="text_22">
      <!-- Present at First Year Forum -->
      <g transform="translate(106.377813 78.927221) scale(0.1 -0.1)">
       <defs>
        <path id="DejaVuSans-50" d="M 1259 4147 
L 1259 2394 
L 2053 2394 
Q 2494 2394 2734 2622 
Q 2975 2850 2975 3272 
Q 2975 3691 2734 3919 
Q 2494 4147 2053 4147 
L 1259 4147 
z
M 628 4666 
L 2053 4666 
Q 2838 4666 3239 4311 
Q 3641 3956 3641 3272 
Q 3641 2581 3239 2228 
Q 2838 1875 2053 1875 
L 1259 1875 
L 1259 0 
L 628 0 
L 628 4666 
z
" transform="scale(0.015625)"/>
        <path id="DejaVuSans-46" d="M 628 4666 
L 3309 4666 
L 3309 4134 
L 1259 4134 
L 1259 2759 
L 3109 2759 
L 3109 2228 
L 1259 2228 
L 1259 0 
L 628 0 
L 628 4666 
z
" transform="scale(0.015625)"/>
        <path id="DejaVuSans-59" d="M -13 4666 
L 666 4666 
L 1959 2747 
L 3244 4666 
L 3922 4666 
L 2272 2222 
L 2272 0 
L 1638 0 
L 1638 2222 
L -13 4666 
z
" transform="scale(0.015625)"/>
        <path id="DejaVuSans-6d" d="M 3328 2828 
Q 3544 3216 3844 3400 
Q 4144 3584 4550 3584 
Q 5097 3584 5394 3201 
Q 5691 2819 5691 2113 
L 5691 0 
L 5113 0 
L 5113 2094 
Q 5113 2597 4934 2840 
Q 4756 3084 4391 3084 
Q 3944 3084 3684 2787 
Q 3425 2491 3425 1978 
L 3425 0 
L 2847 0 
L 2847 2094 
Q 2847 2600 2669 2842 
Q 2491 3084 2119 3084 
Q 1678 3084 1418 2786 
Q 1159 2488 1159 1978 
L 1159 0 
L 581 0 
L 581 3500 
L 1159 3500 
L 1159 2956 
Q 1356 3278 1631 3431 
Q 1906 3584 2284 3584 
Q 2666 3584 2933 3390 
Q 3200 3197 3328 2828 
z
" transform="scale(0.015625)"/>
       </defs>
       <use xlink:href="#DejaVuSans-50"/>
       <use xlink:href="#DejaVuSans-72" x="58.552734"/>
       <use xlink:href="#DejaVuSans-65" x="97.416016"/>
       <use xlink:href="#DejaVuSans-73" x="158.939453"/>
       <use xlink:href="#DejaVuSans-65" x="211.039062"/>
       <use xlink:href="#DejaVuSans-6e" x="272.5625"/>
       <use xlink:href="#DejaVuSans-74" x="335.941406"/>
       <use xlink:href="#DejaVuSans-20" x="375.150391"/>
       <use xlink:href="#DejaVuSans-61" x="406.9375"/>
       <use xlink:href="#DejaVuSans-74" x="468.216797"/>
       <use xlink:href="#DejaVuSans-20" x="507.425781"/>
       <use xlink:href="#DejaVuSans-46" x="539.212891"/>
       <use xlink:href="#DejaVuSans-69" x="589.482422"/>
       <use xlink:href="#DejaVuSans-72" x="617.265625"/>
       <use xlink:href="#DejaVuSans-73" x="658.378906"/>
       <use xlink:href="#DejaVuSans-74" x="710.478516"/>
       <use xlink:href="#DejaVuSans-20" x="749.6875"/>
       <use xlink:href="#DejaVuSans-59" x="781.474609"/>
       <use xlink:href="#DejaVuSans-65" x="829.308594"/>
       <use xlink:href="#DejaVuSans-61" x="890.832031"/>
       <use xlink:href="#DejaVuSans-72" x="952.111328"/>
       <use xlink:href="#DejaVuSans-20" x="993.224609"/>
       <use xlink:href="#DejaVuSans-46" x="1025.011719"/>
       <use xlink:href="#DejaVuSans-6f" x="1078.90625"/>
       <use xlink:href="#DejaVuSans-72" x="1140.087891"/>
       <use xlink:href="#DejaVuSans-75" x="1181.201172"/>
       <use xlink:href="#DejaVuSans-6d" x="1244.580078"/>
      </g>
     </g>
    </g>
    <g id="ytick_5">
     <g id="line2d_22">
      <g>
       <use xlink:href="#m04b463cb77" x="247.57" y="91.250309" style="stroke: #000000; stroke-width: 0.8"/>
      </g>
     </g>
     <g id="text_23">
      <!-- Write up A Review of Causal Models -->
      <g transform="translate(61.455938 95.049527) scale(0.1 -0.1)">
       <defs>
        <path id="DejaVuSans-57" d="M 213 4666 
L 850 4666 
L 1831 722 
L 2809 4666 
L 3519 4666 
L 4500 722 
L 5478 4666 
L 6119 4666 
L 4947 0 
L 4153 0 
L 3169 4050 
L 2175 0 
L 1381 0 
L 213 4666 
z
" transform="scale(0.015625)"/>
        <path id="DejaVuSans-70" d="M 1159 525 
L 1159 -1331 
L 581 -1331 
L 581 3500 
L 1159 3500 
L 1159 2969 
Q 1341 3281 1617 3432 
Q 1894 3584 2278 3584 
Q 2916 3584 3314 3078 
Q 3713 2572 3713 1747 
Q 3713 922 3314 415 
Q 2916 -91 2278 -91 
Q 1894 -91 1617 61 
Q 1341 213 1159 525 
z
M 3116 1747 
Q 3116 2381 2855 2742 
Q 2594 3103 2138 3103 
Q 1681 3103 1420 2742 
Q 1159 2381 1159 1747 
Q 1159 1113 1420 752 
Q 1681 391 2138 391 
Q 2594 391 2855 752 
Q 3116 1113 3116 1747 
z
" transform="scale(0.015625)"/>
        <path id="DejaVuSans-41" d="M 2188 4044 
L 1331 1722 
L 3047 1722 
L 2188 4044 
z
M 1831 4666 
L 2547 4666 
L 4325 0 
L 3669 0 
L 3244 1197 
L 1141 1197 
L 716 0 
L 50 0 
L 1831 4666 
z
" transform="scale(0.015625)"/>
        <path id="DejaVuSans-66" d="M 2375 4863 
L 2375 4384 
L 1825 4384 
Q 1516 4384 1395 4259 
Q 1275 4134 1275 3809 
L 1275 3500 
L 2222 3500 
L 2222 3053 
L 1275 3053 
L 1275 0 
L 697 0 
L 697 3053 
L 147 3053 
L 147 3500 
L 697 3500 
L 697 3744 
Q 697 4328 969 4595 
Q 1241 4863 1831 4863 
L 2375 4863 
z
" transform="scale(0.015625)"/>
       </defs>
       <use xlink:href="#DejaVuSans-57"/>
       <use xlink:href="#DejaVuSans-72" x="94.376953"/>
       <use xlink:href="#DejaVuSans-69" x="135.490234"/>
       <use xlink:href="#DejaVuSans-74" x="163.273438"/>
       <use xlink:href="#DejaVuSans-65" x="202.482422"/>
       <use xlink:href="#DejaVuSans-20" x="264.005859"/>
       <use xlink:href="#DejaVuSans-75" x="295.792969"/>
       <use xlink:href="#DejaVuSans-70" x="359.171875"/>
       <use xlink:href="#DejaVuSans-20" x="422.648438"/>
       <use xlink:href="#DejaVuSans-41" x="454.435547"/>
       <use xlink:href="#DejaVuSans-20" x="522.84375"/>
       <use xlink:href="#DejaVuSans-52" x="554.630859"/>
       <use xlink:href="#DejaVuSans-65" x="619.613281"/>
       <use xlink:href="#DejaVuSans-76" x="681.136719"/>
       <use xlink:href="#DejaVuSans-69" x="740.316406"/>
       <use xlink:href="#DejaVuSans-65" x="768.099609"/>
       <use xlink:href="#DejaVuSans-77" x="829.623047"/>
       <use xlink:href="#DejaVuSans-20" x="911.410156"/>
       <use xlink:href="#DejaVuSans-6f" x="943.197266"/>
       <use xlink:href="#DejaVuSans-66" x="1004.378906"/>
       <use xlink:href="#DejaVuSans-20" x="1039.583984"/>
       <use xlink:href="#DejaVuSans-43" x="1071.371094"/>
       <use xlink:href="#DejaVuSans-61" x="1141.195312"/>
       <use xlink:href="#DejaVuSans-75" x="1202.474609"/>
       <use xlink:href="#DejaVuSans-73" x="1265.853516"/>
       <use xlink:href="#DejaVuSans-61" x="1317.953125"/>
       <use xlink:href="#DejaVuSans-6c" x="1379.232422"/>
       <use xlink:href="#DejaVuSans-20" x="1407.015625"/>
       <use xlink:href="#DejaVuSans-4d" x="1438.802734"/>
       <use xlink:href="#DejaVuSans-6f" x="1525.082031"/>
       <use xlink:href="#DejaVuSans-64" x="1586.263672"/>
       <use xlink:href="#DejaVuSans-65" x="1649.740234"/>
       <use xlink:href="#DejaVuSans-6c" x="1711.263672"/>
       <use xlink:href="#DejaVuSans-73" x="1739.046875"/>
      </g>
     </g>
    </g>
    <g id="ytick_6">
     <g id="line2d_23">
      <g>
       <use xlink:href="#m04b463cb77" x="247.57" y="107.372615" style="stroke: #000000; stroke-width: 0.8"/>
      </g>
     </g>
     <g id="text_24">
      <!-- Write First Year Report -->
      <g transform="translate(129.265313 111.171834) scale(0.1 -0.1)">
       <use xlink:href="#DejaVuSans-57"/>
       <use xlink:href="#DejaVuSans-72" x="94.376953"/>
       <use xlink:href="#DejaVuSans-69" x="135.490234"/>
       <use xlink:href="#DejaVuSans-74" x="163.273438"/>
       <use xlink:href="#DejaVuSans-65" x="202.482422"/>
       <use xlink:href="#DejaVuSans-20" x="264.005859"/>
       <use xlink:href="#DejaVuSans-46" x="295.792969"/>
       <use xlink:href="#DejaVuSans-69" x="346.0625"/>
       <use xlink:href="#DejaVuSans-72" x="373.845703"/>
       <use xlink:href="#DejaVuSans-73" x="414.958984"/>
       <use xlink:href="#DejaVuSans-74" x="467.058594"/>
       <use xlink:href="#DejaVuSans-20" x="506.267578"/>
       <use xlink:href="#DejaVuSans-59" x="538.054688"/>
       <use xlink:href="#DejaVuSans-65" x="585.888672"/>
       <use xlink:href="#DejaVuSans-61" x="647.412109"/>
       <use xlink:href="#DejaVuSans-72" x="708.691406"/>
       <use xlink:href="#DejaVuSans-20" x="749.804688"/>
       <use xlink:href="#DejaVuSans-52" x="781.591797"/>
       <use xlink:href="#DejaVuSans-65" x="846.574219"/>
       <use xlink:href="#DejaVuSans-70" x="908.097656"/>
       <use xlink:href="#DejaVuSans-6f" x="971.574219"/>
       <use xlink:href="#DejaVuSans-72" x="1032.755859"/>
       <use xlink:href="#DejaVuSans-74" x="1073.869141"/>
      </g>
     </g>
    </g>
    <g id="ytick_7">
     <g id="line2d_24">
      <g>
       <use xlink:href="#m04b463cb77" x="247.57" y="123.494921" style="stroke: #000000; stroke-width: 0.8"/>
      </g>
     </g>
     <g id="text_25">
      <!-- Write Paper for DO Event Causality -->
      <g transform="translate(65.8075 127.29414) scale(0.1 -0.1)">
       <use xlink:href="#DejaVuSans-57"/>
       <use xlink:href="#DejaVuSans-72" x="94.376953"/>
       <use xlink:href="#DejaVuSans-69" x="135.490234"/>
       <use xlink:href="#DejaVuSans-74" x="163.273438"/>
       <use xlink:href="#DejaVuSans-65" x="202.482422"/>
       <use xlink:href="#DejaVuSans-20" x="264.005859"/>
       <use xlink:href="#DejaVuSans-50" x="295.792969"/>
       <use xlink:href="#DejaVuSans-61" x="351.595703"/>
       <use xlink:href="#DejaVuSans-70" x="412.875"/>
       <use xlink:href="#DejaVuSans-65" x="476.351562"/>
       <use xlink:href="#DejaVuSans-72" x="537.875"/>
       <use xlink:href="#DejaVuSans-20" x="578.988281"/>
       <use xlink:href="#DejaVuSans-66" x="610.775391"/>
       <use xlink:href="#DejaVuSans-6f" x="645.980469"/>
       <use xlink:href="#DejaVuSans-72" x="707.162109"/>
       <use xlink:href="#DejaVuSans-20" x="748.275391"/>
       <use xlink:href="#DejaVuSans-44" x="780.0625"/>
       <use xlink:href="#DejaVuSans-4f" x="857.064453"/>
       <use xlink:href="#DejaVuSans-20" x="935.775391"/>
       <use xlink:href="#DejaVuSans-45" x="967.5625"/>
       <use xlink:href="#DejaVuSans-76" x="1030.746094"/>
       <use xlink:href="#DejaVuSans-65" x="1089.925781"/>
       <use xlink:href="#DejaVuSans-6e" x="1151.449219"/>
       <use xlink:href="#DejaVuSans-74" x="1214.828125"/>
       <use xlink:href="#DejaVuSans-20" x="1254.037109"/>
       <use xlink:href="#DejaVuSans-43" x="1285.824219"/>
       <use xlink:href="#DejaVuSans-61" x="1355.648438"/>
       <use xlink:href="#DejaVuSans-75" x="1416.927734"/>
       <use xlink:href="#DejaVuSans-73" x="1480.306641"/>
       <use xlink:href="#DejaVuSans-61" x="1532.40625"/>
       <use xlink:href="#DejaVuSans-6c" x="1593.685547"/>
       <use xlink:href="#DejaVuSans-69" x="1621.46875"/>
       <use xlink:href="#DejaVuSans-74" x="1649.251953"/>
       <use xlink:href="#DejaVuSans-79" x="1688.460938"/>
      </g>
     </g>
    </g>
    <g id="ytick_8">
     <g id="line2d_25">
      <g>
       <use xlink:href="#m04b463cb77" x="247.57" y="139.617228" style="stroke: #000000; stroke-width: 0.8"/>
      </g>
     </g>
     <g id="text_26">
      <!-- Study the Causality of the Last Termination -->
      <g transform="translate(24.52 143.416446) scale(0.1 -0.1)">
       <defs>
        <path id="DejaVuSans-68" d="M 3513 2113 
L 3513 0 
L 2938 0 
L 2938 2094 
Q 2938 2591 2744 2837 
Q 2550 3084 2163 3084 
Q 1697 3084 1428 2787 
Q 1159 2491 1159 1978 
L 1159 0 
L 581 0 
L 581 4863 
L 1159 4863 
L 1159 2956 
Q 1366 3272 1645 3428 
Q 1925 3584 2291 3584 
Q 2894 3584 3203 3211 
Q 3513 2838 3513 2113 
z
" transform="scale(0.015625)"/>
       </defs>
       <use xlink:href="#DejaVuSans-53"/>
       <use xlink:href="#DejaVuSans-74" x="63.476562"/>
       <use xlink:href="#DejaVuSans-75" x="102.685547"/>
       <use xlink:href="#DejaVuSans-64" x="166.064453"/>
       <use xlink:href="#DejaVuSans-79" x="229.541016"/>
       <use xlink:href="#DejaVuSans-20" x="288.720703"/>
       <use xlink:href="#DejaVuSans-74" x="320.507812"/>
       <use xlink:href="#DejaVuSans-68" x="359.716797"/>
       <use xlink:href="#DejaVuSans-65" x="423.095703"/>
       <use xlink:href="#DejaVuSans-20" x="484.619141"/>
       <use xlink:href="#DejaVuSans-43" x="516.40625"/>
       <use xlink:href="#DejaVuSans-61" x="586.230469"/>
       <use xlink:href="#DejaVuSans-75" x="647.509766"/>
       <use xlink:href="#DejaVuSans-73" x="710.888672"/>
       <use xlink:href="#DejaVuSans-61" x="762.988281"/>
       <use xlink:href="#DejaVuSans-6c" x="824.267578"/>
       <use xlink:href="#DejaVuSans-69" x="852.050781"/>
       <use xlink:href="#DejaVuSans-74" x="879.833984"/>
       <use xlink:href="#DejaVuSans-79" x="919.042969"/>
       <use xlink:href="#DejaVuSans-20" x="978.222656"/>
       <use xlink:href="#DejaVuSans-6f" x="1010.009766"/>
       <use xlink:href="#DejaVuSans-66" x="1071.191406"/>
       <use xlink:href="#DejaVuSans-20" x="1106.396484"/>
       <use xlink:href="#DejaVuSans-74" x="1138.183594"/>
       <use xlink:href="#DejaVuSans-68" x="1177.392578"/>
       <use xlink:href="#DejaVuSans-65" x="1240.771484"/>
       <use xlink:href="#DejaVuSans-20" x="1302.294922"/>
       <use xlink:href="#DejaVuSans-4c" x="1334.082031"/>
       <use xlink:href="#DejaVuSans-61" x="1389.794922"/>
       <use xlink:href="#DejaVuSans-73" x="1451.074219"/>
       <use xlink:href="#DejaVuSans-74" x="1503.173828"/>
       <use xlink:href="#DejaVuSans-20" x="1542.382812"/>
       <use xlink:href="#DejaVuSans-54" x="1574.169922"/>
       <use xlink:href="#DejaVuSans-65" x="1618.253906"/>
       <use xlink:href="#DejaVuSans-72" x="1679.777344"/>
       <use xlink:href="#DejaVuSans-6d" x="1719.140625"/>
       <use xlink:href="#DejaVuSans-69" x="1816.552734"/>
       <use xlink:href="#DejaVuSans-6e" x="1844.335938"/>
       <use xlink:href="#DejaVuSans-61" x="1907.714844"/>
       <use xlink:href="#DejaVuSans-74" x="1968.994141"/>
       <use xlink:href="#DejaVuSans-69" x="2008.203125"/>
       <use xlink:href="#DejaVuSans-6f" x="2035.986328"/>
       <use xlink:href="#DejaVuSans-6e" x="2097.167969"/>
      </g>
     </g>
    </g>
    <g id="ytick_9">
     <g id="line2d_26">
      <g>
       <use xlink:href="#m04b463cb77" x="247.57" y="155.739534" style="stroke: #000000; stroke-width: 0.8"/>
      </g>
     </g>
     <g id="text_27">
      <!-- Write Paper for the Last Termination Causality -->
      <g transform="translate(10.973125 159.538753) scale(0.1 -0.1)">
       <use xlink:href="#DejaVuSans-57"/>
       <use xlink:href="#DejaVuSans-72" x="94.376953"/>
       <use xlink:href="#DejaVuSans-69" x="135.490234"/>
       <use xlink:href="#DejaVuSans-74" x="163.273438"/>
       <use xlink:href="#DejaVuSans-65" x="202.482422"/>
       <use xlink:href="#DejaVuSans-20" x="264.005859"/>
       <use xlink:href="#DejaVuSans-50" x="295.792969"/>
       <use xlink:href="#DejaVuSans-61" x="351.595703"/>
       <use xlink:href="#DejaVuSans-70" x="412.875"/>
       <use xlink:href="#DejaVuSans-65" x="476.351562"/>
       <use xlink:href="#DejaVuSans-72" x="537.875"/>
       <use xlink:href="#DejaVuSans-20" x="578.988281"/>
       <use xlink:href="#DejaVuSans-66" x="610.775391"/>
       <use xlink:href="#DejaVuSans-6f" x="645.980469"/>
       <use xlink:href="#DejaVuSans-72" x="707.162109"/>
       <use xlink:href="#DejaVuSans-20" x="748.275391"/>
       <use xlink:href="#DejaVuSans-74" x="780.0625"/>
       <use xlink:href="#DejaVuSans-68" x="819.271484"/>
       <use xlink:href="#DejaVuSans-65" x="882.650391"/>
       <use xlink:href="#DejaVuSans-20" x="944.173828"/>
       <use xlink:href="#DejaVuSans-4c" x="975.960938"/>
       <use xlink:href="#DejaVuSans-61" x="1031.673828"/>
       <use xlink:href="#DejaVuSans-73" x="1092.953125"/>
       <use xlink:href="#DejaVuSans-74" x="1145.052734"/>
       <use xlink:href="#DejaVuSans-20" x="1184.261719"/>
       <use xlink:href="#DejaVuSans-54" x="1216.048828"/>
       <use xlink:href="#DejaVuSans-65" x="1260.132812"/>
       <use xlink:href="#DejaVuSans-72" x="1321.65625"/>
       <use xlink:href="#DejaVuSans-6d" x="1361.019531"/>
       <use xlink:href="#DejaVuSans-69" x="1458.431641"/>
       <use xlink:href="#DejaVuSans-6e" x="1486.214844"/>
       <use xlink:href="#DejaVuSans-61" x="1549.59375"/>
       <use xlink:href="#DejaVuSans-74" x="1610.873047"/>
       <use xlink:href="#DejaVuSans-69" x="1650.082031"/>
       <use xlink:href="#DejaVuSans-6f" x="1677.865234"/>
       <use xlink:href="#DejaVuSans-6e" x="1739.046875"/>
       <use xlink:href="#DejaVuSans-20" x="1802.425781"/>
       <use xlink:href="#DejaVuSans-43" x="1834.212891"/>
       <use xlink:href="#DejaVuSans-61" x="1904.037109"/>
       <use xlink:href="#DejaVuSans-75" x="1965.316406"/>
       <use xlink:href="#DejaVuSans-73" x="2028.695312"/>
       <use xlink:href="#DejaVuSans-61" x="2080.794922"/>
       <use xlink:href="#DejaVuSans-6c" x="2142.074219"/>
       <use xlink:href="#DejaVuSans-69" x="2169.857422"/>
       <use xlink:href="#DejaVuSans-74" x="2197.640625"/>
       <use xlink:href="#DejaVuSans-79" x="2236.849609"/>
      </g>
     </g>
    </g>
    <g id="ytick_10">
     <g id="line2d_27">
      <g>
       <use xlink:href="#m04b463cb77" x="247.57" y="171.86184" style="stroke: #000000; stroke-width: 0.8"/>
      </g>
     </g>
     <g id="text_28">
      <!-- Study the Causality of Carbon Cycle -->
      <g transform="translate(60.216875 175.661059) scale(0.1 -0.1)">
       <defs>
        <path id="DejaVuSans-62" d="M 3116 1747 
Q 3116 2381 2855 2742 
Q 2594 3103 2138 3103 
Q 1681 3103 1420 2742 
Q 1159 2381 1159 1747 
Q 1159 1113 1420 752 
Q 1681 391 2138 391 
Q 2594 391 2855 752 
Q 3116 1113 3116 1747 
z
M 1159 2969 
Q 1341 3281 1617 3432 
Q 1894 3584 2278 3584 
Q 2916 3584 3314 3078 
Q 3713 2572 3713 1747 
Q 3713 922 3314 415 
Q 2916 -91 2278 -91 
Q 1894 -91 1617 61 
Q 1341 213 1159 525 
L 1159 0 
L 581 0 
L 581 4863 
L 1159 4863 
L 1159 2969 
z
" transform="scale(0.015625)"/>
        <path id="DejaVuSans-63" d="M 3122 3366 
L 3122 2828 
Q 2878 2963 2633 3030 
Q 2388 3097 2138 3097 
Q 1578 3097 1268 2742 
Q 959 2388 959 1747 
Q 959 1106 1268 751 
Q 1578 397 2138 397 
Q 2388 397 2633 464 
Q 2878 531 3122 666 
L 3122 134 
Q 2881 22 2623 -34 
Q 2366 -91 2075 -91 
Q 1284 -91 818 406 
Q 353 903 353 1747 
Q 353 2603 823 3093 
Q 1294 3584 2113 3584 
Q 2378 3584 2631 3529 
Q 2884 3475 3122 3366 
z
" transform="scale(0.015625)"/>
       </defs>
       <use xlink:href="#DejaVuSans-53"/>
       <use xlink:href="#DejaVuSans-74" x="63.476562"/>
       <use xlink:href="#DejaVuSans-75" x="102.685547"/>
       <use xlink:href="#DejaVuSans-64" x="166.064453"/>
       <use xlink:href="#DejaVuSans-79" x="229.541016"/>
       <use xlink:href="#DejaVuSans-20" x="288.720703"/>
       <use xlink:href="#DejaVuSans-74" x="320.507812"/>
       <use xlink:href="#DejaVuSans-68" x="359.716797"/>
       <use xlink:href="#DejaVuSans-65" x="423.095703"/>
       <use xlink:href="#DejaVuSans-20" x="484.619141"/>
       <use xlink:href="#DejaVuSans-43" x="516.40625"/>
       <use xlink:href="#DejaVuSans-61" x="586.230469"/>
       <use xlink:href="#DejaVuSans-75" x="647.509766"/>
       <use xlink:href="#DejaVuSans-73" x="710.888672"/>
       <use xlink:href="#DejaVuSans-61" x="762.988281"/>
       <use xlink:href="#DejaVuSans-6c" x="824.267578"/>
       <use xlink:href="#DejaVuSans-69" x="852.050781"/>
       <use xlink:href="#DejaVuSans-74" x="879.833984"/>
       <use xlink:href="#DejaVuSans-79" x="919.042969"/>
       <use xlink:href="#DejaVuSans-20" x="978.222656"/>
       <use xlink:href="#DejaVuSans-6f" x="1010.009766"/>
       <use xlink:href="#DejaVuSans-66" x="1071.191406"/>
       <use xlink:href="#DejaVuSans-20" x="1106.396484"/>
       <use xlink:href="#DejaVuSans-43" x="1138.183594"/>
       <use xlink:href="#DejaVuSans-61" x="1208.007812"/>
       <use xlink:href="#DejaVuSans-72" x="1269.287109"/>
       <use xlink:href="#DejaVuSans-62" x="1310.400391"/>
       <use xlink:href="#DejaVuSans-6f" x="1373.876953"/>
       <use xlink:href="#DejaVuSans-6e" x="1435.058594"/>
       <use xlink:href="#DejaVuSans-20" x="1498.4375"/>
       <use xlink:href="#DejaVuSans-43" x="1530.224609"/>
       <use xlink:href="#DejaVuSans-79" x="1600.048828"/>
       <use xlink:href="#DejaVuSans-63" x="1659.228516"/>
       <use xlink:href="#DejaVuSans-6c" x="1714.208984"/>
       <use xlink:href="#DejaVuSans-65" x="1741.992188"/>
      </g>
     </g>
    </g>
    <g id="ytick_11">
     <g id="line2d_28">
      <g>
       <use xlink:href="#m04b463cb77" x="247.57" y="187.984147" style="stroke: #000000; stroke-width: 0.8"/>
      </g>
     </g>
     <g id="text_29">
      <!-- Write Paper for Carbon Cycle Causality -->
      <g transform="translate(46.67 191.783365) scale(0.1 -0.1)">
       <use xlink:href="#DejaVuSans-57"/>
       <use xlink:href="#DejaVuSans-72" x="94.376953"/>
       <use xlink:href="#DejaVuSans-69" x="135.490234"/>
       <use xlink:href="#DejaVuSans-74" x="163.273438"/>
       <use xlink:href="#DejaVuSans-65" x="202.482422"/>
       <use xlink:href="#DejaVuSans-20" x="264.005859"/>
       <use xlink:href="#DejaVuSans-50" x="295.792969"/>
       <use xlink:href="#DejaVuSans-61" x="351.595703"/>
       <use xlink:href="#DejaVuSans-70" x="412.875"/>
       <use xlink:href="#DejaVuSans-65" x="476.351562"/>
       <use xlink:href="#DejaVuSans-72" x="537.875"/>
       <use xlink:href="#DejaVuSans-20" x="578.988281"/>
       <use xlink:href="#DejaVuSans-66" x="610.775391"/>
       <use xlink:href="#DejaVuSans-6f" x="645.980469"/>
       <use xlink:href="#DejaVuSans-72" x="707.162109"/>
       <use xlink:href="#DejaVuSans-20" x="748.275391"/>
       <use xlink:href="#DejaVuSans-43" x="780.0625"/>
       <use xlink:href="#DejaVuSans-61" x="849.886719"/>
       <use xlink:href="#DejaVuSans-72" x="911.166016"/>
       <use xlink:href="#DejaVuSans-62" x="952.279297"/>
       <use xlink:href="#DejaVuSans-6f" x="1015.755859"/>
       <use xlink:href="#DejaVuSans-6e" x="1076.9375"/>
       <use xlink:href="#DejaVuSans-20" x="1140.316406"/>
       <use xlink:href="#DejaVuSans-43" x="1172.103516"/>
       <use xlink:href="#DejaVuSans-79" x="1241.927734"/>
       <use xlink:href="#DejaVuSans-63" x="1301.107422"/>
       <use xlink:href="#DejaVuSans-6c" x="1356.087891"/>
       <use xlink:href="#DejaVuSans-65" x="1383.871094"/>
       <use xlink:href="#DejaVuSans-20" x="1445.394531"/>
       <use xlink:href="#DejaVuSans-43" x="1477.181641"/>
       <use xlink:href="#DejaVuSans-61" x="1547.005859"/>
       <use xlink:href="#DejaVuSans-75" x="1608.285156"/>
       <use xlink:href="#DejaVuSans-73" x="1671.664062"/>
       <use xlink:href="#DejaVuSans-61" x="1723.763672"/>
       <use xlink:href="#DejaVuSans-6c" x="1785.042969"/>
       <use xlink:href="#DejaVuSans-69" x="1812.826172"/>
       <use xlink:href="#DejaVuSans-74" x="1840.609375"/>
       <use xlink:href="#DejaVuSans-79" x="1879.818359"/>
      </g>
     </g>
    </g>
    <g id="ytick_12">
     <g id="line2d_29">
      <g>
       <use xlink:href="#m04b463cb77" x="247.57" y="204.106453" style="stroke: #000000; stroke-width: 0.8"/>
      </g>
     </g>
     <g id="text_30">
      <!-- Write Thesis -->
      <g transform="translate(179.196563 207.905672) scale(0.1 -0.1)">
       <use xlink:href="#DejaVuSans-57"/>
       <use xlink:href="#DejaVuSans-72" x="94.376953"/>
       <use xlink:href="#DejaVuSans-69" x="135.490234"/>
       <use xlink:href="#DejaVuSans-74" x="163.273438"/>
       <use xlink:href="#DejaVuSans-65" x="202.482422"/>
       <use xlink:href="#DejaVuSans-20" x="264.005859"/>
       <use xlink:href="#DejaVuSans-54" x="295.792969"/>
       <use xlink:href="#DejaVuSans-68" x="356.876953"/>
       <use xlink:href="#DejaVuSans-65" x="420.255859"/>
       <use xlink:href="#DejaVuSans-73" x="481.779297"/>
       <use xlink:href="#DejaVuSans-69" x="533.878906"/>
       <use xlink:href="#DejaVuSans-73" x="561.662109"/>
      </g>
     </g>
    </g>
   </g>
  </g>
 </g>
 <defs>
  <clipPath id="p7edf0c950d">
   <rect x="247.57" y="10.8" width="461.63" height="209.267536"/>
  </clipPath>
 </defs>
</svg>
